<svg width="1269.815087890625px" height="365.59999999999997px" xmlns="http://www.w3.org/2000/svg" viewBox="-384.90754394531245 -107.79999999999998 1269.815087890625 365.59999999999997" style="background: rgba(49, 57, 90, 0);" preserveAspectRatio="xMidYMid"><defs><filter id="editing-hover" x="-100%" y="-100%" width="300%" height="300%"><feFlood flood-color="#a8a4b9" result="flood"></feFlood><feComposite operator="in" in2="SourceAlpha" in="flood" result="shadow"></feComposite><feOffset dx="-1.9" dy="-2.6" in="SourceGraphic" result="offset-1"></feOffset><feOffset dx="1.9" dy="2.6" in="shadow" result="offset-2"></feOffset><feMerge><feMergeNode in="offset-2"></feMergeNode><feMergeNode in="offset-1"></feMergeNode></feMerge></filter></defs><g filter="url(#editing-hover)"><g transform="translate(-210.134991645813, 154.13000869750977)"><path d="M12.69 8.70L12.69 8.70L12.55-5.77L12.55-89.47L12.55-89.47Q12.55-93.82 9.84-96.53L9.84-96.53L11.26-97.95L11.26-97.95Q13.97-95.24 18.32-95.24L18.32-95.24L79.84-95.24L79.84-95.24Q94.60-95.24 99.84-94.39L99.84-94.39L99.84-94.39Q105.08-93.53 109.00-92.50L109.00-92.50L109.00-92.50Q112.92-91.46 115.56-90.04L115.56-90.04L115.56-90.04Q118.20-88.61 120.98-86.40L120.98-86.40L120.98-86.40Q123.76-84.19 125.40-81.41L125.40-81.41L125.40-81.41Q129.18-75.00 129.18-67.05L129.18-67.05L129.18-67.05Q129.18-59.10 127.43-53.50L127.43-53.50L127.43-53.50Q125.68-47.91 121.83-43.49L121.83-43.49L121.83-43.49Q113.85-34.22 94.67-34.22L94.67-34.22L55.39-34.22L55.39-34.22Q50.97-34.22 48.26-36.93L48.26-36.93L46.77-35.57L46.77-35.57Q49.62-32.72 49.62-28.44L49.62-28.44L49.62-5.77L49.62-5.77Q49.62-0.29 49.47 7.70L49.47 7.70L46.27 7.98L46.27 7.98Q45.34 0 43.84 0L43.84 0L18.32 0L18.32 0Q17.47 0 16.93 3.46L16.93 3.46L16.93 3.46Q16.40 6.92 16.40 10.09L16.40 10.09L16.40 10.09Q16.40 13.26 17.75 20.89L17.75 20.89L17.75 20.89Q19.11 28.52 19.11 31.58L19.11 31.58L19.11 31.58Q19.11 38.14 14.33 38.14L14.33 38.14L14.33 38.14Q9.55 38.14 9.55 31.44L9.55 31.44L9.55 31.44Q9.55 28.23 11.12 20.10L11.12 20.10L11.12 20.10Q12.69 11.98 12.69 8.70ZM49.62-65.66L49.62-65.66L49.62-61.45L49.62-61.45Q49.62-57.25 46.77-54.39L46.77-54.39L48.26-52.90L48.26-52.90Q51.04-55.68 55.39-55.68L55.39-55.68L78.49-55.68L78.49-55.68Q85.69-55.68 87.12-56.50L87.12-56.50L87.12-56.50Q88.54-57.32 89.54-58.17L89.54-58.17L89.54-58.17Q91.25-59.74 91.25-62.66L91.25-62.66L91.25-62.66Q91.25-65.59 90.64-66.98L90.64-66.98L90.64-66.98Q90.04-68.37 88.90-69.15L88.90-69.15L88.90-69.15Q87.76-69.93 86.62-70.43L86.62-70.43L86.62-70.43Q85.48-70.93 83.84-71.15L83.84-71.15L83.84-71.15Q81.55-71.43 78.77-71.43L78.77-71.43L55.39-71.43L55.39-71.43Q50.97-71.43 48.26-74.14L48.26-74.14L46.77-72.79L46.77-72.79Q49.62-69.93 49.62-65.66ZM32.51 4.85L32.51 4.85L34.36 21.74L34.36 21.74Q34.36 26.09 31.19 26.09L31.19 26.09L31.19 26.09Q28.02 26.09 28.02 21.67L28.02 21.67L28.02 21.67Q28.02 19.11 29.34 12.73L29.34 12.73L29.34 12.73Q30.65 6.34 30.65 4.38L30.65 4.38L30.65 4.38Q30.65 2.42 30.62-0.64L30.62-0.64L30.62-0.64Q30.58-3.71 30.58-5.77L30.58-5.77L33.79-2.00L33.79-2.00Q33.29-2.00 32.90 0.32L32.90 0.32L32.90 0.32Q32.51 2.64 32.51 4.85ZM261.56 23.38L261.56 23.38L263.13 8.63L263.13 8.63Q263.13-0.36 255.82-5.10L255.82-5.10L255.82-5.10Q248.51-9.84 240.46-9.30L240.46-9.30L240.46-9.30Q232.40-8.77 229.19-3.85L229.19-3.85L229.19-3.85Q227.55-1.50 227.55 1.71L227.55 1.71L227.20 20.82L227.20 20.82Q227.20 24.74 228.41 32.47L228.41 32.47L228.41 32.47Q229.62 40.21 229.62 44.13L229.62 44.13L229.62 44.13Q229.62 51.04 225.70 51.04L225.70 51.04L225.70 51.04Q221.78 51.04 221.78 44.34L221.78 44.34L221.78 44.34Q221.78 39.92 223.06 31.65L223.06 31.65L223.06 31.65Q224.35 23.38 224.52 19.11L224.52 19.11L224.52 19.11Q224.70 14.83 224.70 0.86L224.70 0.86L224.70 0.86Q224.70-2.85 222.42-7.70L222.42-7.70L222.42-7.70Q220.14-12.55 215.22-21.03L215.22-21.03L215.22-21.03Q210.30-29.51 207.17-36.00L207.17-36.00L205.03-37.21L205.03-37.21Q203.32-34.08 198.97-34.08L198.97-34.08L192.98-33.86L192.98-33.86Q186.85-33.86 183.78-36.86L183.78-36.86L182.29-35.43L182.29-35.43Q182.50-32.79 182.50-24.17L182.50-24.17L182.43-6.70L182.43-6.70Q182.43 1.14 182.71 4.85L182.71 4.85L184.07 15.33L184.07 15.33Q184.07 18.25 182.07 18.25L182.07 18.25L182.07 18.25Q180.08 18.25 180.08 15.54L180.08 15.54L181.22 6.70L181.22 6.70Q181.22 3.49 179.33 1.60L179.33 1.60L179.33 1.60Q177.44-0.29 174.41-0.29L174.41-0.29L174.41-0.29Q171.38-0.29 169.06 2.39L169.06 2.39L169.06 2.39Q166.75 5.06 166.75 9.34L166.75 9.34L166.75 9.34Q166.75 13.62 168.31 20.92L168.31 20.92L168.31 20.92Q169.88 28.23 169.88 31.44L169.88 31.44L169.88 31.44Q169.88 38.14 165.11 38.14L165.11 38.14L165.11 38.14Q160.33 38.14 160.33 31.58L160.33 31.58L160.33 31.58Q160.33 28.52 161.72 20.89L161.72 20.89L161.72 20.89Q163.11 13.26 163.11 8.77L163.11 8.77L163.11 8.77Q163.11 4.28 161.04 1.39L161.04 1.39L161.04 1.39Q158.97-1.50 156.34-1.50L156.34-1.50L156.34-1.50Q153.70-1.50 151.85 0.32L151.85 0.32L151.85 0.32Q149.99 2.14 149.99 4.85L149.99 4.85L151.92 21.74L151.92 21.74Q151.92 26.09 148.71 26.09L148.71 26.09L148.71 26.09Q145.50 26.09 145.50 21.67L145.50 21.67L145.50 21.67Q145.50 19.11 146.86 12.73L146.86 12.73L146.86 12.73Q148.21 6.34 148.14 2.78L148.14 2.78L148.14 2.78Q148.07-0.78 148.07-89.47L148.07-89.47L148.07-89.47Q148.07-93.89 145.36-96.53L145.36-96.53L146.78-97.95L146.78-97.95Q149.56-95.24 153.84-95.24L153.84-95.24L217.72-95.24L217.72-95.24Q232.69-95.24 237.86-94.35L237.86-94.35L237.86-94.35Q243.02-93.46 246.91-92.46L246.91-92.46L246.91-92.46Q250.79-91.46 253.47-90.00L253.47-90.00L253.47-90.00Q256.14-88.54 258.89-86.37L258.89-86.37L258.89-86.37Q261.63-84.19 263.27-81.41L263.27-81.41L263.27-81.41Q267.05-75.07 267.05-67.94L267.05-67.94L267.05-67.94Q267.05-60.81 265.94-56.28L265.94-56.28L265.94-56.28Q264.84-51.76 262.27-47.76L262.27-47.76L262.27-47.76Q256.71-39.14 242.74-39.14L242.74-39.14L242.17-37.50L242.17-37.50Q246.66-35.72 248.16-32.58L248.16-32.58L248.16-32.58Q254.43-18.89 257.42-15.22L257.42-15.22L257.42-15.22Q260.42-11.55 262.99-9.34L262.99-9.34L262.99-9.34Q265.55-7.13 270.33-4.85L270.33-4.85L270.33-4.85Q275.10-2.57 276.10-1.89L276.10-1.89L276.10-1.89Q277.10-1.21 277.10-0.78L277.10-0.78L277.10-0.78Q277.10 6.34 279.03 17.54L279.03 17.54L279.03 17.54Q280.95 28.73 280.95 31.94L280.95 31.94L280.95 31.94Q280.95 35.15 280.70 36.57L280.70 36.57L280.70 36.57Q280.45 38.00 279.60 39.39L279.60 39.39L279.60 39.39Q278.74 40.78 277.10 40.78L277.10 40.78L277.10 40.78Q275.46 40.78 274.64 38.42L274.64 38.42L274.64 38.42Q273.82 36.07 273.82 32.65L273.82 32.65L273.82 32.65Q273.82 29.23 274.75 20.42L274.75 20.42L274.75 20.42Q275.67 11.62 275.67 7.13L275.67 7.13L275.67 7.13Q275.67-1.78 269.90-1.78L269.90-1.78L269.90-1.78Q267.05-1.78 265.66-0.78L265.66-0.78L265.66-0.78Q264.27 0.21 264.27 3.31L264.27 3.31L264.27 3.31Q264.27 6.42 265.55 13.19L265.55 13.19L265.55 13.19Q266.83 19.96 266.83 23.42L266.83 23.42L266.83 23.42Q266.83 26.88 264.20 26.88L264.20 26.88L264.20 26.88Q261.56 26.88 261.56 23.38ZM214.08-71.57L214.08-71.57L197.26-71.08L197.26-71.08Q186.92-71.08 183.78-74.14L183.78-74.14L182.29-72.79L182.29-72.79Q185.14-70.01 185.14-65.66L185.14-65.66L185.14-60.88L185.14-60.88Q185.14-56.60 182.29-53.75L182.29-53.75L183.78-52.33L183.78-52.33Q186.85-55.46 196.47-55.46L196.47-55.46L214.51-54.82L214.51-54.82Q221.71-54.82 225.67-56.71L225.67-56.71L225.67-56.71Q229.62-58.60 229.62-63.66L229.62-63.66L229.62-63.66Q229.62-66.87 227.41-68.69L227.41-68.69L227.41-68.69Q225.20-70.50 222.07-71.04L222.07-71.04L222.07-71.04Q218.93-71.57 214.08-71.57ZM288.58 4.56L288.58 4.56L288.79 15.90L288.79 15.90Q288.79 19.32 287.72 21.07L287.72 21.07L287.72 21.07Q286.65 22.81 285.16 22.81L285.16 22.81L285.16 22.81Q282.16 22.81 282.16 17.04L282.16 17.04L282.16 17.04Q282.16 11.26 283.59 4.24L283.59 4.24L283.59 4.24Q285.01-2.78 286.08-5.42L286.08-5.42L320.30-89.61L320.30-89.61Q321.01-91.46 321.01-93.25L321.01-93.25L321.01-93.25Q321.01-95.03 319.80-96.74L319.80-96.74L321.80-98.02L321.80-98.02Q323.87-94.96 328.21-94.96L328.21-94.96L361.01-94.96L361.01-94.96Q365.29-94.96 367.35-98.02L367.35-98.02L369.42-96.74L369.42-96.74Q368.21-95.03 368.21-93.46L368.21-93.46L368.21-93.46Q368.21-91.89 369.06-89.68L369.06-89.68L404.28-5.35L404.28-5.35Q405.92-1.35 409.34 0.93L409.34 0.93L408.49 2.28L408.49 2.28Q404.99 0 400.72 0L400.72 0L386.74 0L386.74 0Q386.89 1.57 386.89 2.21L386.89 2.21L386.89 2.21Q386.89 4.56 384.96 4.56L384.96 4.56L384.96 4.56Q384.11 4.56 383.43 3.89L383.43 3.89L383.43 3.89Q382.75 3.21 382.75 1.96L382.75 1.96L382.75 1.96Q382.75 0.71 382.89 0L382.89 0L374.27 0L374.27 0Q371.13 0 370.20 3.42L370.20 3.42L370.20 3.42Q369.06 7.63 369.06 13.08L369.06 13.08L369.06 13.08Q369.06 18.54 369.78 23.03L369.78 23.03L369.78 23.03Q370.49 27.52 370.49 29.19L370.49 29.19L370.49 29.19Q370.49 30.87 369.67 31.90L369.67 31.90L369.67 31.90Q368.85 32.94 367.64 32.94L367.64 32.94L367.64 32.94Q366.43 32.94 365.57 31.94L365.57 31.94L365.57 31.94Q364.71 30.94 364.71 29.16L364.71 29.16L364.71 29.16Q364.71 27.38 365.61 22.24L365.61 22.24L365.61 22.24Q366.50 17.11 366.50 14.54L366.50 14.54L366.50-5.49L366.50-5.49Q365.78-7.41 365.78-9.05L365.78-9.05L365.78-9.05Q365.78-10.69 367.07-12.55L367.07-12.55L365.21-13.90L365.21-13.90Q363.08-10.84 358.80-10.84L358.80-10.84L329.50-10.84L329.50-10.84Q325.22-10.84 323.08-13.83L323.08-13.83L321.23-12.55L321.23-12.55Q322.58-10.62 322.58-8.98L322.58-8.98L322.58-8.98Q322.58-7.34 322.08-5.49L322.08-5.49L322.08-5.42L322.08-5.42Q321.44-2.99 321.44-1.71L321.44-1.71L321.44-1.71Q321.44-0.43 322.87 1.64L322.87 1.64L321.01 2.99L321.01 2.99Q318.88 0 314.60 0L314.60 0L288.79 0L288.79 0Q288.58 1.35 288.58 4.56ZM336.84-30.58L336.84-30.58L350.46-30.58L350.46-30.58Q354.73-30.58 358.16-28.30L358.16-28.30L359.08-29.66L359.08-29.66Q355.73-31.94 354.24-36.00L354.24-36.00L345.18-59.17L345.18-59.17Q343.61-63.23 343.54-67.44L343.54-67.44L342.62-67.44L342.62-67.44Q342.47-62.73 341.19-59.17L341.19-59.17L332.99-36.07L332.99-36.07Q331.49-31.94 328.21-29.66L328.21-29.66L329.14-28.23L329.14-28.23Q332.49-30.58 336.84-30.58ZM383.11 23.60L383.11 23.60L383.11 23.60Q383.11 18.68 384.96 11.26L384.96 11.26L384.96 11.26Q387.03 19.82 387.03 22.38L387.03 22.38L387.03 22.38Q387.03 26.16 385.07 26.16L385.07 26.16L385.07 26.16Q383.11 26.16 383.11 23.60ZM438.50 2.99L439.57 18.68L439.57 18.68Q439.57 21.03 437.43 21.03L437.43 21.03L437.43 21.03Q436.36 21.03 435.72 20.28L435.72 20.28L435.72 20.28Q435.08 19.53 435.08 17.47L435.08 17.47L435.08 17.47Q435.08 15.40 436.08 9.37L436.08 9.37L436.08 9.37Q437.07 3.35 437.07-1.18L437.07-1.18L437.07-1.18Q437.07-5.70 434.72-11.05L434.72-11.05L399.36-92.39L399.36-92.39Q397.79-96.24 394.30-98.59L394.30-98.59L395.23-99.95L395.23-99.95Q398.58-97.74 402.93-97.74L402.93-97.74L427.81-97.74L427.81-97.74Q432.15-97.74 434.08-100.73L434.08-100.73L436.15-99.45L436.15-99.45Q434.93-97.88 434.93-96.42L434.93-96.42L434.93-96.42Q434.93-94.96 436.90-89.82L436.90-89.82L436.90-89.82Q438.86-84.69 442.06-76.96L442.06-76.96L442.06-76.96Q445.27-69.22 448.09-62.59L448.09-62.59L448.09-62.59Q450.90-55.96 454.04-48.69L454.04-48.69L454.04-48.69Q457.18-41.42 457.53-40.56L457.53-40.56L457.53-40.56Q457.89-41.42 461.03-48.69L461.03-48.69L461.03-48.69Q464.16-55.96 466.98-62.59L466.98-62.59L466.98-62.59Q469.79-69.22 473.00-76.99L473.00-76.99L473.00-76.99Q480.13-94.17 480.13-96.10L480.13-96.10L480.13-96.10Q480.13-98.02 478.99-99.45L478.99-99.45L480.99-100.73L480.99-100.73Q482.91-97.74 487.26-97.74L487.26-97.74L512.21-97.74L512.21-97.74Q516.63-97.74 519.98-99.95L519.98-99.95L520.84-98.59L520.84-98.59Q517.34-96.24 515.78-92.39L515.78-92.39L479.92-7.56L479.92-7.56Q478.99-5.42 478.99 2.71L478.99 2.71L478.99 2.71Q478.99 10.84 480.67 20.78L480.67 20.78L480.67 20.78Q482.34 30.73 482.34 35.57L482.34 35.57L482.34 35.57Q482.34 42.49 477.39 42.49L477.39 42.49L477.39 42.49Q472.43 42.49 472.43 35.64L472.43 35.64L472.43 35.64Q472.43 31.01 474.21 21.92L474.21 21.92L474.21 21.92Q476.00 12.83 476.00 5.28L476.00 5.28L476.00 5.28Q476.00-2.28 474.14-2.28L474.14-2.28L439.64-2.28L439.64-2.28Q438.50-2.28 438.50 2.99L438.50 2.99ZM572.09-11.83L572.09-11.83L570.95-20.67L570.95-21.46L570.95-21.46Q572.45-24.10 575.02-24.10L575.02-24.10L633.19-24.02L633.19-24.02Q637.54-24.02 640.25-26.80L640.25-26.80L641.67-25.38L641.67-25.38Q638.54-22.24 638.54-13.40L638.54-13.40L638.54-13.40Q638.54-13.40 638.54-9.27L638.54-9.27L638.54-9.27Q638.54-2.07 641.67 1.21L641.67 1.21L640.25 2.64L640.25 2.64Q637.47-0.14 633.19-0.14L633.19-0.14L548.85-0.14L548.85-0.14Q542.51-0.14 539.52 2.28L539.52 2.28L539.52 2.28Q536.09 5.13 536.09 18.39L536.09 18.39L536.09 18.39Q536.09 23.74 537.73 34.18L537.73 34.18L537.73 34.18Q539.37 44.63 539.37 49.90L539.37 49.90L539.37 49.90Q539.37 57.53 533.96 57.53L533.96 57.53L533.96 57.53Q528.11 57.53 528.11 49.69L528.11 49.69L528.11 49.69Q528.11 44.34 530.46 33.86L530.46 33.86L530.46 33.86Q532.81 23.38 532.81 17.96L532.81 17.96L532.46-5.92L532.46-89.04L532.46-89.04Q532.46-93.46 529.75-96.10L529.75-96.10L531.17-97.59L531.17-97.59Q534.10-94.81 538.30-94.81L538.30-94.81L629.84-94.81L629.84-94.81Q634.19-94.81 636.97-97.59L636.97-97.59L638.39-96.10L638.39-96.10Q635.26-92.96 635.26-84.26L635.26-84.26L635.26-80.27L635.26-80.27Q635.26-72.64 638.39-69.58L638.39-69.58L636.97-68.22L636.97-68.22Q633.40-71.86 620.21-71.86L620.21-71.86L584.78-70.22L584.78-70.22Q571.67-70.22 568.10-73.86L568.10-73.86L566.61-72.43L566.61-72.43Q569.39-69.72 569.39-65.27L569.39-65.27L569.39-65.27Q569.39-60.81 566.61-58.10L566.61-58.10L568.10-56.75L568.10-56.75Q571.52-60.31 582.50-60.31L582.50-60.31L612.37-58.67L612.37-58.67Q623.42-58.67 626.99-62.24L626.99-62.24L628.48-60.81L628.48-60.81Q625.35-57.67 625.35-48.76L625.35-48.76L625.35-44.77L625.35-44.77Q625.35-37.43 628.48-34.15L628.48-34.15L626.99-32.65L626.99-32.65Q623.57-36.21 612.52-36.21L612.52-36.21L582.65-34.65L582.65-34.65Q571.67-34.65 568.10-38.21L568.10-38.21L566.68-36.79L566.68-36.79Q568.82-34.65 569.17-31.69L569.17-31.69L569.17-31.69Q569.53-28.73 569.60-27.48L569.60-27.48L569.60-27.48Q569.67-26.23 569.60-23.63L569.60-23.63L569.60-23.63Q569.53-21.03 569.53-20.53L569.53-20.53L568.32-11.98L568.32-11.98Q568.32-9.41 570.21-9.41L570.21-9.41L570.21-9.41Q572.09-9.41 572.09-11.83ZM699.63-11.83L699.63-11.83L698.49-20.67L698.49-21.46L698.49-21.46Q699.99-24.10 702.55-24.10L702.55-24.10L760.73-24.02L760.73-24.02Q765.07-24.02 767.78-26.80L767.78-26.80L769.21-25.38L769.21-25.38Q766.07-22.24 766.07-13.40L766.07-13.40L766.07-13.40Q766.07-13.40 766.07-9.27L766.07-9.27L766.07-9.27Q766.07-2.07 769.21 1.21L769.21 1.21L767.78 2.64L767.78 2.64Q765.00-0.14 760.73-0.14L760.73-0.14L676.39-0.14L676.39-0.14Q670.05-0.14 667.05 2.28L667.05 2.28L667.05 2.28Q663.63 5.13 663.63 18.39L663.63 18.39L663.63 18.39Q663.63 23.74 665.27 34.18L665.27 34.18L665.27 34.18Q666.91 44.63 666.91 49.90L666.91 49.90L666.91 49.90Q666.91 57.53 661.49 57.53L661.49 57.53L661.49 57.53Q655.65 57.53 655.65 49.69L655.65 49.69L655.65 49.69Q655.65 44.34 658.00 33.86L658.00 33.86L658.00 33.86Q660.35 23.38 660.35 17.96L660.35 17.96L659.99-5.92L659.99-89.04L659.99-89.04Q659.99-93.46 657.29-96.10L657.29-96.10L658.71-97.59L658.71-97.59Q661.63-94.81 665.84-94.81L665.84-94.81L757.38-94.81L757.38-94.81Q761.72-94.81 764.50-97.59L764.50-97.59L765.93-96.10L765.93-96.10Q762.79-92.96 762.79-84.26L762.79-84.26L762.79-80.27L762.79-80.27Q762.79-72.64 765.93-69.58L765.93-69.58L764.50-68.22L764.50-68.22Q760.94-71.86 747.75-71.86L747.75-71.86L712.32-70.22L712.32-70.22Q699.20-70.22 695.64-73.86L695.64-73.86L694.14-72.43L694.14-72.43Q696.92-69.72 696.92-65.27L696.92-65.27L696.92-65.27Q696.92-60.81 694.14-58.10L694.14-58.10L695.64-56.75L695.64-56.75Q699.06-60.31 710.04-60.31L710.04-60.31L739.91-58.67L739.91-58.67Q750.96-58.67 754.52-62.24L754.52-62.24L756.02-60.81L756.02-60.81Q752.88-57.67 752.88-48.76L752.88-48.76L752.88-44.77L752.88-44.77Q752.88-37.43 756.02-34.15L756.02-34.15L754.52-32.65L754.52-32.65Q751.10-36.21 740.05-36.21L740.05-36.21L710.18-34.65L710.18-34.65Q699.20-34.65 695.64-38.21L695.64-38.21L694.21-36.79L694.21-36.79Q696.35-34.65 696.71-31.69L696.71-31.69L696.71-31.69Q697.06-28.73 697.14-27.48L697.14-27.48L697.14-27.48Q697.21-26.23 697.14-23.63L697.14-23.63L697.14-23.63Q697.06-21.03 697.06-20.53L697.06-20.53L695.85-11.98L695.85-11.98Q695.85-9.41 697.74-9.41L697.74-9.41L697.74-9.41Q699.63-9.41 699.63-11.83ZM814.05 22.10L814.05 22.10L815.76 2.78L815.76 2.78Q815.76 0.50 813.19-1.00L813.19-1.00L813.19-1.00Q808.99-3.35 802.93-3.35L802.93-3.35L802.93-3.35Q794.80-3.35 791.74-0.14L791.74-0.14L791.74-0.14Q790.38 1.28 790.38 4.03L790.38 4.03L790.38 4.03Q790.38 6.77 792.02 13.62L792.02 13.62L792.02 13.62Q793.66 20.46 793.66 23.28L793.66 23.28L793.66 23.28Q793.66 26.09 792.63 27.77L792.63 27.77L792.63 27.77Q791.59 29.44 789.60 29.44L789.60 29.44L789.60 29.44Q787.60 29.44 786.53 27.77L786.53 27.77L786.53 27.77Q785.46 26.09 785.46 23.24L785.46 23.24L785.46 23.24Q785.46 20.39 787.21 13.40L787.21 13.40L787.21 13.40Q788.96 6.42 788.96 2.85L788.96 2.85L788.88-84.55L788.88-84.55Q788.88-92.96 783.75-98.59L783.75-98.59L785.25-100.09L785.25-100.09Q791.02-94.96 799.29-94.96L799.29-94.96L820.61-94.96L820.61-94.96Q825.17-94.96 828.34-96.06L828.34-96.06L828.34-96.06Q831.52-97.17 833.44-100.45L833.44-100.45L835.79-99.31L835.79-99.31Q833.94-94.89 833.94-90.96L833.94-90.96L833.94-90.96Q833.94-87.76 845.20-74.85L845.20-74.85L845.20-74.85Q859.89-58.03 864.09-52.25L864.09-52.25L864.09-52.25Q868.30-46.48 869.58-42.92L869.58-42.92L873.86-42.92L873.86-42.92Q870.37-48.05 870.37-57.39L870.37-57.39L870.37-57.39Q870.37-61.74 871.44-70.40L871.44-70.40L871.44-70.40Q872.51-79.06 872.51-83.41L872.51-83.41L872.51-83.41Q872.51-95.10 865.09-98.59L865.09-98.59L866.59-100.09L866.59-100.09Q872.36-94.96 880.63-94.96L880.63-94.96L895.25-94.96L895.25-94.96Q903.52-94.96 909.29-100.09L909.29-100.09L910.72-98.59L910.72-98.59Q905.66-92.89 905.66-84.55L905.66-84.55L905.51 2.50L905.51 2.50Q905.51 5.56 906.94 11.66L906.94 11.66L906.94 11.66Q908.37 17.75 908.37 20.82L908.37 20.82L908.37 20.82Q908.37 25.38 904.87 25.38L904.87 25.38L904.87 25.38Q901.38 25.38 901.38 20.82L901.38 20.82L901.38 20.82Q901.38 17.82 902.73 12.01L902.73 12.01L902.73 12.01Q904.09 6.20 904.09 4.03L904.09 4.03L904.09 4.03Q904.09 1.85 902.66 0.93L902.66 0.93L902.66 0.93Q901.24 0 899.88 0L899.88 0L871.72 0L871.72 0Q865.73 0 865.73 10.91L865.73 10.91L865.73 10.91Q865.73 15.40 867.41 23.92L867.41 23.92L867.41 23.92Q869.08 32.44 869.08 36.79L869.08 36.79L869.08 36.79Q869.08 42.99 864.45 42.99L864.45 42.99L864.45 42.99Q859.82 42.99 859.82 36.71L859.82 36.71L859.82 36.71Q859.82 32.72 861.64 25.09L861.64 25.09L861.64 25.09Q863.45 17.47 863.52 13.62L863.52 13.62L863.67 4.13L863.67 4.13Q863.88-2.50 862.31-4.49L862.31-4.49L828.17-47.76L828.17-47.76Q826.81-49.55 825.17-55.18L825.17-55.18L820.82-55.04L820.82-55.04Q824.53-51.19 824.53-46.48L824.53-46.48L824.53-5.77L825.88 30.30L825.88 30.30Q825.88 31.44 825.21 32.26L825.21 32.26L825.21 32.26Q824.53 33.08 823.35 33.08L823.35 33.08L823.35 33.08Q822.18 33.08 821.39 32.12L821.39 32.12L821.39 32.12Q820.61 31.15 820.61 29.94L820.61 29.94L821.46 2.57L821.46 2.57Q821.46 1.71 820.82 1.00L820.82 1.00L820.82 1.00Q820.18 0.29 819.33 0.29L819.33 0.29L819.33 0.29Q817.47 0.29 817.47 3.14L817.47 3.14L817.47 3.14Q817.47 5.99 818.43 12.48L818.43 12.48L818.43 12.48Q819.40 18.96 819.40 21.39L819.40 21.39L819.40 21.39Q819.40 26.80 816.72 26.80L816.72 26.80L816.72 26.80Q814.05 26.80 814.05 22.10Z" fill="#222039"></path></g></g><style>text {
  font-size: 64px;
  font-family: Arial Black;
  dominant-baseline: central;
  text-anchor: middle;
}</style></svg>