<svg width="200" height="200" version="1.1" id="Layer_1" xmlns="http://www.w3.org/2000/svg" xmlns:xlink="http://www.w3.org/1999/xlink" x="0px" y="0px" viewBox="0 0 648 648" enable-background="new 0 0 648 648" xml:space="preserve">
	<path fill="#eee" opacity="1.000000" stroke="none" 
		d="
	M446.699615,609.726929 
		C358.300354,647.505920 237.215012,643.342773 149.512970,579.402466 
		C85.416885,532.672485 40.312897,472.432892 23.765909,393.875397 
		C-16.252888,203.884537 105.323273,75.676888 218.434738,34.500965 
		C265.842010,17.243298 314.709076,13.099945 364.650238,18.680084 
		C491.380920,32.840240 580.825256,127.441978 613.521973,213.021851 
		C631.917480,261.170044 637.588867,310.986969 631.565857,361.893372 
		C618.649170,471.064636 547.739624,565.703003 446.699615,609.726929 
	M177.454010,208.879791 
		C146.617599,217.822510 124.774628,237.341171 111.132690,266.075470 
		C96.400406,297.106415 96.042847,329.416473 103.608963,362.274078 
		C108.939621,385.423737 119.048859,405.872467 137.552643,421.405884 
		C161.374374,441.403564 189.497391,446.476807 219.534103,444.446991 
		C244.718674,442.745087 266.821320,433.937653 284.696808,415.652069 
		C296.828430,403.242157 303.551910,388.176636 306.830475,370.775421 
		C294.926117,370.775421 283.457977,370.695831 271.995422,370.912018 
		C270.972839,370.931305 269.419220,372.709656 269.068268,373.943115 
		C263.777435,392.537750 250.720016,403.211487 233.101929,408.935425 
		C220.669617,412.974548 207.819183,412.994629 195.018921,410.928986 
		C160.626801,405.378906 135.895111,377.518829 139.088104,334.077087 
		C196.070206,334.077087 253.100174,334.077087 310.678467,334.077087 
		C310.678467,331.696136 310.875427,329.866882 310.647369,328.092255 
		C308.784058,313.594269 308.396027,298.690826 304.652161,284.687988 
		C288.992706,226.118973 242.349060,193.344772 177.454010,208.879791 
	M463.241455,322.223083 
		C461.714264,320.063599 460.187073,317.904144 458.561890,315.606110 
		C485.914062,279.022949 513.104065,242.656601 540.806274,205.605240 
		C538.316956,205.485489 536.722656,205.344772 535.128052,205.342285 
		C523.128418,205.323608 511.123871,205.525955 499.131805,205.223846 
		C495.098053,205.122223 492.872955,206.608887 490.648499,209.761017 
		C472.972717,234.808090 455.127502,259.735596 437.325043,284.693207 
		C436.330170,286.087952 435.253571,287.424408 433.986572,289.087860 
		C432.472961,286.955933 431.396057,285.484833 430.366180,283.981537 
		C414.547577,260.891205 398.417908,238.003891 383.112457,214.578125 
		C378.462433,207.461105 373.641724,204.543198 365.088074,205.115875 
		C352.546356,205.955566 339.906677,205.332092 326.210815,205.332092 
		C327.835938,207.597305 328.837128,209.022110 329.867828,210.425262 
		C355.415466,245.204422 380.908020,280.024445 406.609436,314.689606 
		C409.087341,318.031708 408.849579,320.038605 406.549957,323.242645 
		C378.668121,362.089661 350.941467,401.048035 323.181976,439.982819 
		C322.174530,441.395874 321.244202,442.863922 319.858185,444.932892 
		C334.772400,444.932892 348.741760,444.798706 362.705170,445.027435 
		C366.187531,445.084473 368.074310,443.826965 369.920776,441.065521 
		C390.015625,411.013672 410.226776,381.039581 430.412567,351.048553 
		C431.489197,349.448944 432.622772,347.887665 434.020691,345.893646 
		C435.453186,347.906677 436.523682,349.341034 437.521912,350.824036 
		C457.801636,380.952759 478.104034,411.066345 498.291687,441.256653 
		C500.046143,443.880432 501.821411,445.069427 505.112854,445.019592 
		C518.776001,444.812805 532.444092,444.941803 546.110352,444.919525 
		C547.476440,444.917297 548.842285,444.725311 550.947449,444.565155 
		C521.503479,403.483948 492.590088,363.142975 463.241455,322.223083 
	z"/>
	<path fill="#28253F" opacity="1.000000" stroke="none" 
		d="
	M177.852097,208.785751 
		C242.349060,193.344772 288.992706,226.118973 304.652161,284.687988 
		C308.396027,298.690826 308.784058,313.594269 310.647369,328.092255 
		C310.875427,329.866882 310.678467,331.696136 310.678467,334.077087 
		C253.100174,334.077087 196.070206,334.077087 139.088104,334.077087 
		C135.895111,377.518829 160.626801,405.378906 195.018921,410.928986 
		C207.819183,412.994629 220.669617,412.974548 233.101929,408.935425 
		C250.720016,403.211487 263.777435,392.537750 269.068268,373.943115 
		C269.419220,372.709656 270.972839,370.931305 271.995422,370.912018 
		C283.457977,370.695831 294.926117,370.775421 306.830475,370.775421 
		C303.551910,388.176636 296.828430,403.242157 284.696808,415.652069 
		C266.821320,433.937653 244.718674,442.745087 219.534103,444.446991 
		C189.497391,446.476807 161.374374,441.403564 137.552643,421.405884 
		C119.048859,405.872467 108.939621,385.423737 103.608963,362.274078 
		C96.042847,329.416473 96.400406,297.106415 111.132690,266.075470 
		C124.774628,237.341171 146.617599,217.822510 177.852097,208.785751 
	M209.499954,303.211304 
		C229.775986,303.211304 250.052017,303.211304 270.349731,303.211304 
		C268.723175,266.794037 240.952225,236.649918 201.130554,238.231934 
		C166.594803,239.603958 136.908905,270.536285 139.194031,303.211334 
		C162.268234,303.211334 185.384079,303.211334 209.499954,303.211304 
	z"/>
	<path fill="#28253F" opacity="1.000000" stroke="none" 
		d="
	M463.459076,322.512543 
		C492.590088,363.142975 521.503479,403.483948 550.947449,444.565155 
		C548.842285,444.725311 547.476440,444.917297 546.110352,444.919525 
		C532.444092,444.941803 518.776001,444.812805 505.112854,445.019592 
		C501.821411,445.069427 500.046143,443.880432 498.291687,441.256653 
		C478.104034,411.066345 457.801636,380.952759 437.521912,350.824036 
		C436.523682,349.341034 435.453186,347.906677 434.020691,345.893646 
		C432.622772,347.887665 431.489197,349.448944 430.412567,351.048553 
		C410.226776,381.039581 390.015625,411.013672 369.920776,441.065521 
		C368.074310,443.826965 366.187531,445.084473 362.705170,445.027435 
		C348.741760,444.798706 334.772400,444.932892 319.858185,444.932892 
		C321.244202,442.863922 322.174530,441.395874 323.181976,439.982819 
		C350.941467,401.048035 378.668121,362.089661 406.549957,323.242645 
		C408.849579,320.038605 409.087341,318.031708 406.609436,314.689606 
		C380.908020,280.024445 355.415466,245.204422 329.867828,210.425262 
		C328.837128,209.022110 327.835938,207.597305 326.210815,205.332092 
		C339.906677,205.332092 352.546356,205.955566 365.088074,205.115875 
		C373.641724,204.543198 378.462433,207.461105 383.112457,214.578125 
		C398.417908,238.003891 414.547577,260.891205 430.366180,283.981537 
		C431.396057,285.484833 432.472961,286.955933 433.986572,289.087860 
		C435.253571,287.424408 436.330170,286.087952 437.325043,284.693207 
		C455.127502,259.735596 472.972717,234.808090 490.648499,209.761017 
		C492.872955,206.608887 495.098053,205.122223 499.131805,205.223846 
		C511.123871,205.525955 523.128418,205.323608 535.128052,205.342285 
		C536.722656,205.344772 538.316956,205.485489 540.806274,205.605240 
		C513.104065,242.656601 485.914062,279.022949 458.561890,315.606110 
		C460.187073,317.904144 461.714264,320.063599 463.459076,322.512543 
	z"/>
	<path fill="#eee" opacity="1.000000" stroke="none" 
		d="
	M208.999939,303.211304 
		C185.384079,303.211334 162.268234,303.211334 139.194031,303.211334 
		C136.908905,270.536285 166.594803,239.603958 201.130554,238.231934 
		C240.952225,236.649918 268.723175,266.794037 270.349731,303.211304 
		C250.052017,303.211304 229.775986,303.211304 208.999939,303.211304 
	z"/>
</svg>